<svg xmlns="http://www.w3.org/2000/svg" xmlns:xlink="http://www.w3.org/1999/xlink" width="1080" zoomAndPan="magnify" viewBox="0 0 810 809.999993" height="1080" preserveAspectRatio="xMidYMid meet" version="1.0"><defs><g/><clipPath id="f955b479df"><path d="M 173.597656 331.914062 L 394.730469 331.914062 L 394.730469 409.457031 L 173.597656 409.457031 Z M 173.597656 331.914062 " clip-rule="nonzero"/></clipPath><clipPath id="4149114277"><path d="M 173.597656 401.320312 L 344.722656 401.320312 L 344.722656 520.859375 L 173.597656 520.859375 Z M 173.597656 401.320312 " clip-rule="nonzero"/></clipPath></defs><g clip-path="url(#f955b479df)"><path fill="#004aad" d="M 344.71875 331.914062 L 250.972656 331.914062 C 194.914062 331.914062 173.597656 366.554688 173.597656 409.285156 C 174.816406 407.886719 176.085938 406.519531 177.414062 405.195312 C 192.351562 390.257812 212.210938 382.03125 233.339844 382.03125 L 232.921875 381.921875 L 344.71875 381.921875 C 372.339844 381.921875 394.730469 359.53125 394.730469 331.914062 L 344.71875 331.914062 " fill-opacity="1" fill-rule="nonzero"/></g><g clip-path="url(#4149114277)"><path fill="#004aad" d="M 291.597656 470.851562 L 233.53125 470.851562 C 228.074219 470.851562 223.503906 466.386719 223.609375 460.929688 C 223.710938 455.644531 228.027344 451.390625 233.339844 451.390625 L 294.710938 451.390625 C 322.332031 451.390625 344.71875 429 344.71875 401.382812 L 233.339844 401.382812 C 200.34375 401.382812 173.597656 428.128906 173.597656 461.121094 C 173.597656 494.113281 200.34375 520.859375 233.339844 520.859375 L 241.589844 520.859375 C 269.210938 520.859375 291.597656 498.46875 291.597656 470.851562 " fill-opacity="1" fill-rule="nonzero"/></g><g fill="#004aad" fill-opacity="1"><g transform="translate(299.031785, 519.868368)"><g><path d="M 32.140625 -59.4375 C 52.929688 -59.4375 63.328125 -49.53125 63.328125 -29.71875 C 63.328125 -9.90625 52.929688 0 32.140625 0 L 6.390625 0 L 6.390625 -59.4375 Z M 25.484375 -14.25 L 31.796875 -14.25 C 39.796875 -14.25 43.796875 -18.539062 43.796875 -27.125 L 43.796875 -32.3125 C 43.796875 -40.894531 39.796875 -45.1875 31.796875 -45.1875 L 25.484375 -45.1875 Z M 25.484375 -14.25 "/></g></g></g><g fill="#004aad" fill-opacity="1"><g transform="translate(366.24431, 519.868368)"><g><path d="M 31.453125 -14.25 L 59.703125 -14.25 L 59.703125 0 L 2.078125 0 L 2.078125 -6.140625 L 29.625 -45.1875 L 4.140625 -45.1875 L 4.140625 -59.4375 L 59 -59.4375 L 59 -53.296875 Z M 31.453125 -14.25 "/></g></g></g><g fill="#004aad" fill-opacity="1"><g transform="translate(428.618909, 519.868368)"><g><path d="M 6.390625 -59.4375 L 57.796875 -59.4375 L 57.796875 -45.1875 L 25.484375 -45.1875 L 25.484375 -36.96875 L 53.125 -36.96875 L 53.125 -23.328125 L 25.484375 -23.328125 L 25.484375 -14.25 L 58.40625 -14.25 L 58.40625 0 L 6.390625 0 Z M 6.390625 -59.4375 "/></g></g></g><g fill="#004aad" fill-opacity="1"><g transform="translate(490.993508, 519.868368)"><g><path d="M 6.390625 -59.4375 L 57.796875 -59.4375 L 57.796875 -45.1875 L 25.484375 -45.1875 L 25.484375 -36.96875 L 53.125 -36.96875 L 53.125 -23.328125 L 25.484375 -23.328125 L 25.484375 -14.25 L 58.40625 -14.25 L 58.40625 0 L 6.390625 0 Z M 6.390625 -59.4375 "/></g></g></g><g fill="#004aad" fill-opacity="1"><g transform="translate(553.368107, 519.868368)"><g><path d="M 40.609375 -44.234375 L 40.609375 0 L 21.515625 0 L 21.515625 -44.234375 L 1.984375 -44.234375 L 1.984375 -59.4375 L 60.046875 -59.4375 L 60.046875 -44.234375 Z M 40.609375 -44.234375 "/></g></g></g><g fill="#004aad" fill-opacity="1"><g transform="translate(615.742706, 519.868368)"><g><path d="M 46.21875 0 L 43.71875 -8.375 L 22.890625 -8.375 L 20.390625 0 L 0.859375 0 L 22.546875 -59.4375 L 44.75 -59.4375 L 66.4375 0 Z M 26.875 -21.6875 L 39.734375 -21.6875 L 33.515625 -42.84375 L 33.171875 -42.84375 Z M 26.875 -21.6875 "/></g></g></g></svg>